HIERARCHY
ROOT Hips
{
 OFFSET 0.000000 0.000000 0.000000
 CHANNELS 6 Xposition Yposition Zposition Yrotation Xrotation Zrotation
 JOINT Chest
 {
  OFFSET 0.000000 9.585900 0.002600
  CHANNELS 3 Yrotation Xrotation Zrotation
  JOINT Chest2
  {
   OFFSET 0.000000 9.601200 -0.005300
   CHANNELS 3 Yrotation Xrotation Zrotation
   JOINT Chest3
   {
    OFFSET 0.000000 9.561800 0.000000
    CHANNELS 3 Yrotation Xrotation Zrotation
    JOINT Chest4
    {
     OFFSET 0.000000 9.552100 0.000000
     CHANNELS 3 Yrotation Xrotation Zrotation
     JOINT Neck
     {
      OFFSET 0.000000 14.453000 0.000000
      CHANNELS 3 Yrotation Xrotation Zrotation
      JOINT Head
      {
       OFFSET 0.000000 8.936500 -0.011300
       CHANNELS 3 Yrotation Xrotation Zrotation
       End Site
       {
        OFFSET 0.000000 17.073600 -0.006000
       }
      }
     }
     JOINT RightCollar
     {
      OFFSET -2.921100 9.558500 0.000000
      CHANNELS 3 Yrotation Xrotation Zrotation
      JOINT RightShoulder
      {
       OFFSET -13.519700 0.000000 0.000000
       CHANNELS 3 Yrotation Xrotation Zrotation
       JOINT RightElbow
       {
        OFFSET 0.000000 -29.696600 0.000000
        CHANNELS 3 Yrotation Xrotation Zrotation
        JOINT RightWrist
        {
         OFFSET 0.000000 -24.004700 0.000000
         CHANNELS 3 Yrotation Xrotation Zrotation
         End Site
         {
          OFFSET 0.000000 -17.728500 0.000000
         }
        }
       }
      }
     }
     JOINT LeftCollar
     {
      OFFSET 2.921100 9.558500 0.000000
      CHANNELS 3 Yrotation Xrotation Zrotation
      JOINT LeftShoulder
      {
       OFFSET 13.519700 0.000000 0.000000
       CHANNELS 3 Yrotation Xrotation Zrotation
       JOINT LeftElbow
       {
        OFFSET 0.000000 -29.696600 0.000000
        CHANNELS 3 Yrotation Xrotation Zrotation
        JOINT LeftWrist
        {
         OFFSET 0.000000 -24.004700 0.000000
         CHANNELS 3 Yrotation Xrotation Zrotation
         End Site
         {
          OFFSET 0.000000 -17.728500 0.000000
         }
        }
       }
      }
     }
    }
   }
  }
 }
 JOINT RightHip
 {
  OFFSET -7.771700 -0.012900 -0.001300
  CHANNELS 3 Yrotation Xrotation Zrotation
  JOINT RightKnee
  {
   OFFSET 0.000000 -40.869800 0.001200
   CHANNELS 3 Yrotation Xrotation Zrotation
   JOINT RightAnkle
   {
    OFFSET 0.000000 -39.717900 0.002100
    CHANNELS 3 Yrotation Xrotation Zrotation
    JOINT RightToe
    {
     OFFSET 0.000000 -4.965400 11.033500
     CHANNELS 3 Yrotation Xrotation Zrotation
     End Site
     {
      OFFSET 0.000000 -1.423100 5.872300
     }
    }
   }
  }
 }
 JOINT LeftHip
 {
  OFFSET 7.771700 -0.012900 -0.001300
  CHANNELS 3 Yrotation Xrotation Zrotation
  JOINT LeftKnee
  {
   OFFSET 0.000000 -40.869800 0.001200
   CHANNELS 3 Yrotation Xrotation Zrotation
   JOINT LeftAnkle
   {
    OFFSET 0.000000 -39.717900 0.002100
    CHANNELS 3 Yrotation Xrotation Zrotation
    JOINT LeftToe
    {
     OFFSET 0.000000 -4.965400 11.033500
     CHANNELS 3 Yrotation Xrotation Zrotation
     End Site
     {
      OFFSET 0.000000 -1.423100 5.872300
     }
    }
   }
  }
 }
}
MOTION
Frames: 8
Frame Time: 0.008333
0.000000 85.388000 0.000000 0.000000 -5.767877 0.000000 0.000000 11.653817 0.000000 0.000000 -5.885947 0.000000 0.000000 -0.000000 0.000000 0.000000 -0.000000 0.000000 0.000000 12.528835 0.000000 0.000000 0.711642 0.000000 0.000000 -0.000000 0.000000 0.000000 0.000000 -90.000000 0.000000 -2.309062 0.000000 0.000000 2.309062 0.000000 0.000000 -0.000000 0.000000 0.000000 -0.000000 90.000000 0.000000 -2.309062 0.000000 0.000000 2.309062 0.000000 0.000000 8.520406 0.000000 0.000000 1.905762 0.000000 -0.000000 -4.658285 0.000000 0.000000 -0.000000 0.000000 0.000000 8.520406 0.000000 0.000000 1.905762 0.000000 -0.000000 -4.658285 0.000000 0.000000 -0.000000 0.000000
-2.945499 52.230268 33.820104 171.756215 -39.582540 -2.191938 3.242714 22.991518 1.925822 0.358437 3.356848 0.372009 0.590569 5.419826 0.611925 2.449029 19.296422 2.518385 -1.816024 13.840650 -2.731967 -2.401301 -10.129673 -4.402730 -5.364374 -0.830520 -3.341481 -3.051988 -2.560667 3.756105 -134.472670 -74.108876 152.857580 23.963555 15.386226 64.869001 -4.617416 0.251175 -0.217350 10.955113 -1.937605 8.895935 102.400423 -62.283472 -134.627022 -31.520361 19.738425 -75.912878 -1.672154 -42.049836 0.412662 -142.407176 86.020094 -138.544302 0.231007 -10.075051 -1.663517 0.391699 -0.864679 0.168978 -0.439922 -38.051746 5.906124 66.929789 83.866700 56.203543 -5.471156 -12.872432 10.035572 0.481543 1.448809 0.181958
-2.944455 52.231176 33.820760 171.751748 -39.580299 -2.199905 3.260706 22.999662 1.933658 0.366290 3.363158 0.368925 0.600295 5.424328 0.611154 2.457208 19.286483 2.526677 -1.916119 13.811213 -2.707973 -2.665469 -10.194192 -4.303965 -5.374121 -0.843351 -3.332576 -3.130974 -2.529307 3.677653 -131.688655 -73.481450 150.351507 23.958434 15.243764 65.942558 -4.604494 0.217651 -0.224641 11.076760 -1.905154 8.995444 100.798947 -61.419962 -133.545424 -31.215908 19.555399 -76.631347 -1.693759 -42.045881 0.425893 -142.452554 86.033142 -138.590848 0.244116 -10.081464 -1.670247 0.377899 -0.856256 0.164272 -0.447704 -38.056102 5.916322 66.980977 83.862465 56.259661 -5.471315 -12.866708 10.040092 0.484217 1.442658 0.173025
-2.944822 52.232040 33.821496 171.745390 -39.577598 -2.198747 3.275745 23.007248 1.933180 0.363711 3.358020 0.372601 0.599003 5.421621 0.613116 2.479994 19.296586 2.525443 -2.026975 13.781256 -2.690466 -2.894979 -10.242417 -4.218737 -5.381347 -0.858840 -3.326766 -3.221876 -2.505645 3.586645 -129.083381 -72.809353 148.054038 23.900838 15.082556 66.944256 -4.586852 0.186512 -0.231634 11.178919 -1.888717 9.081642 99.180206 -60.490387 -132.459822 -30.867171 19.360183 -77.384749 -1.708748 -42.044429 0.423594 -142.565382 86.048384 -138.696932 0.247934 -10.085558 -1.693076 0.377672 -0.850937 0.167181 -0.448480 -38.059923 5.908258 67.055549 83.847246 56.340676 -5.459232 -12.863600 10.042667 0.470537 1.439954 0.167791
-2.943405 52.232950 33.822791 171.742070 -39.575324 -2.210840 3.297275 23.011054 1.944524 0.367148 3.358428 0.373093 0.604623 5.422135 0.614098 2.500706 19.295543 2.531299 -2.159012 13.754156 -2.673230 -3.085152 -10.275439 -4.151427 -5.378602 -0.871999 -3.324052 -3.299429 -2.490267 3.548362 -126.837909 -72.153305 146.102061 23.777978 14.893313 67.843802 -4.599001 0.170212 -0.222983 11.283227 -1.892040 9.145960 97.509339 -59.474072 -131.345787 -30.479453 19.184311 -78.161045 -1.759202 -42.035709 0.441797 -142.808040 86.079545 -138.937148 0.245665 -10.096011 -1.729205 0.378301 -0.836874 0.169209 -0.454822 -38.063039 5.919054 67.097402 83.838779 56.388807 -5.451433 -12.862660 10.044956 0.453962 1.439774 0.167089
-2.942237 52.232606 33.825661 171.726833 -39.563522 -2.215707 3.325334 23.005228 1.955881 0.370501 3.357674 0.373572 0.609899 5.420944 0.615026 2.521005 19.292014 2.536963 -2.255233 13.740317 -2.668487 -3.278322 -10.294113 -4.094164 -5.337309 -0.873837 -3.352265 -3.476830 -2.474860 3.437561 -124.596948 -71.395298 144.223817 23.583420 14.681400 68.620841 -4.607881 0.159013 -0.215130 11.368480 -1.903572 9.201627 95.790386 -58.372319 -130.203239 -30.042914 19.043484 -78.944212 -1.780588 -42.044906 0.464339 -142.873197 86.097016 -139.000901 0.241888 -10.093309 -1.751938 0.380207 -0.831970 0.174514 -0.452129 -38.077557 5.928917 67.139867 83.831459 56.437154 -5.433774 -12.861155 10.047290 0.436877 1.438649 0.165269
-2.941038 52.232442 33.828217 171.707114 -39.556199 -2.218655 3.371363 22.996332 1.963692 0.363588 3.359021 0.382184 0.616278 5.420035 0.615196 2.544006 19.288775 2.541098 -2.338104 13.736992 -2.667372 -3.448315 -10.291035 -4.060041 -5.356583 -0.871176 -3.342697 -3.588373 -2.466549 3.280102 -122.585847 -70.607981 142.585808 23.311297 14.451783 69.256987 -4.591267 0.143171 -0.205478 11.388094 -1.905529 9.249647 94.085785 -57.205120 -129.072004 -29.539552 18.948849 -79.698089 -1.786851 -42.051346 0.482434 -142.913276 86.110627 -139.032275 0.235356 -10.085700 -1.772356 0.385281 -0.831324 0.180195 -0.446058 -38.087570 5.940411 67.229776 83.820018 56.531200 -5.421319 -12.859744 10.051824 0.429603 1.439777 0.168736
-2.940197 52.232709 33.829793 171.684337 -39.556689 -2.218594 3.408533 22.990025 1.975374 0.367066 3.362333 0.383700 0.641163 5.412079 0.610128 2.558343 19.289275 2.556100 -2.411197 13.745597 -2.679249 -3.593195 -10.264861 -4.052863 -5.385629 -0.863202 -3.335892 -3.668338 -2.456899 3.147161 -120.867381 -69.828621 141.231988 22.953752 14.201357 69.743435 -4.583115 0.136074 -0.190275 11.357655 -1.898115 9.267301 92.443239 -55.983007 -127.991548 -28.977654 18.912154 -80.381542 -1.810387 -42.049566 0.512430 -142.934990 86.124064 -139.064678 0.239024 -10.081795 -1.784192 0.381588 -0.828634 0.180435 -0.437842 -38.088562 5.954388 67.294556 83.814685 56.599760 -5.418720 -12.858719 10.051692 0.424218 1.438569 0.171274
